<svg xmlns="http://www.w3.org/2000/svg" viewBox="0 0 303.82 50"><title>imagotype-color</title><g id="Capa_2" data-name="Capa 2"><g id="Capa_7" data-name="Capa 7"><path d="M303.82,25A25,25,0,1,1,296.5,7.31,24.87,24.87,0,0,1,303.82,25Z" style="fill:#2c3e50"/><rect x="264.59" y="32.09" width="17.83" height="7.13" style="fill:#3ddb86"/><path d="M293.12,35.66a3.59,3.59,0,0,1-3.56,3.57A3.56,3.56,0,0,1,287,33.14a3.57,3.57,0,0,1,6.08,2.52Z" style="fill:#3ddb86"/><rect x="275.29" y="21.4" width="17.83" height="7.13" style="fill:#fff"/><path d="M271.72,25a3.56,3.56,0,1,1-3.56-3.56A3.55,3.55,0,0,1,271.72,25Z" style="fill:#fff"/><path d="M271.72,14.27a3.56,3.56,0,1,1-3.56-3.57A3.59,3.59,0,0,1,271.72,14.27Z" style="fill:#fff"/><path d="M26,26.93A11.9,11.9,0,0,1,7.92,37.47V50H0V14.82H7.92V16.4a11.94,11.94,0,0,1,6.41-1.75C20.69,14.65,26,19.89,26,26.93Zm-7.72,0a5.61,5.61,0,0,0-5.54-5.87,6.14,6.14,0,0,0-4.85,2.18v7.38a6.07,6.07,0,0,0,4.85,2.14A5.57,5.57,0,0,0,18.31,26.93Z" style="fill:#2c3e50"/><path d="M37.9,4.26V38.73H30V4.26Z" style="fill:#2c3e50"/><path d="M67.89,14.82V39.1H60V37.47a11.25,11.25,0,0,1-6.46,1.9c-6.36,0-11.7-5.44-11.7-12.44s5.34-12.38,11.7-12.38A11.23,11.23,0,0,1,60,16.4V14.82ZM60,30.58V23.29a6.12,6.12,0,0,0-4.85-2.09,5.53,5.53,0,0,0-5.59,5.73,5.53,5.53,0,0,0,5.59,5.73A6.11,6.11,0,0,0,60,30.58Z" style="fill:#2c3e50"/><path d="M93.8,19.36,83.11,32.23H93.8v6.5h-22V34.9L82.92,21.74H72V15.18H93.8Z" style="fill:#2c3e50"/><path d="M136.85,25.09V38.73H129V26.06c0-3.21-1.65-4.37-3.89-4.37a4.87,4.87,0,0,0-3.88,1.8,11.83,11.83,0,0,1,.05,1.36V38.73h-7.87V25.82c0-3.21-1.65-4.13-3.64-4.13a5,5,0,0,0-4.08,2v15H97.75V15.18h7.92v1.46a10.12,10.12,0,0,1,13.26.82,11.34,11.34,0,0,1,7.81-2.91C132.86,14.55,136.85,18.29,136.85,25.09Z" style="fill:#2c3e50"/><path d="M165.19,28.83h-17a5.06,5.06,0,0,0,5.34,4.32c1.75,0,2.77-.39,3.5-1.26h8c-1.41,4.61-5.78,7.48-11.32,7.48-7.72,0-12.86-5.25-12.86-12.44s5-12.38,12.28-12.38C161.36,14.55,166.36,20.47,165.19,28.83Zm-16.95-4.52h9.81c-.43-2.72-2.13-3.93-4.8-3.93A4.84,4.84,0,0,0,148.24,24.31Z" style="fill:#2c3e50"/><path d="M195.35,4.26V38.73h-7.87V37.57a11.63,11.63,0,0,1-6.46,1.8c-6.36,0-11.7-5.35-11.7-12.39s5.34-12.33,11.7-12.33a11.33,11.33,0,0,1,6.46,1.84V4.26Zm-7.87,26.41V23.39a6.14,6.14,0,0,0-4.86-2.09A5.52,5.52,0,0,0,177,27a5.54,5.54,0,0,0,5.58,5.78A6.14,6.14,0,0,0,187.48,30.67Z" style="fill:#2c3e50"/><path d="M209.15,15.18V38.73h-7.87V15.18Z" style="fill:#2c3e50"/><path d="M239.14,14.82V39.1h-7.87V37.47a11.27,11.27,0,0,1-6.46,1.9c-6.36,0-11.7-5.44-11.7-12.44s5.34-12.38,11.7-12.38a11.25,11.25,0,0,1,6.46,1.85V14.82Zm-7.87,15.76V23.29a6.14,6.14,0,0,0-4.86-2.09,5.53,5.53,0,0,0-5.58,5.73,5.53,5.53,0,0,0,5.58,5.73A6.13,6.13,0,0,0,231.27,30.58Z" style="fill:#2c3e50"/></g></g></svg>